<?xml version="1.0" encoding="UTF-8"?>
<svg id="Layer_1" xmlns="http://www.w3.org/2000/svg" version="1.1" viewBox="0 0 80 20">
  <!-- Generator: Adobe Illustrator 29.3.0, SVG Export Plug-In . SVG Version: 2.1.0 Build 146)  -->
  <defs>
    <style>
      .st0 {
        fill: #fff;
      }

      .st1 {
        fill: #09f;
      }
    </style>
  </defs>
  <g>
    <path class="st0" d="M26.61,7.84V1.13h1.01v2.92h3.35V1.13h1.02v6.71h-1.02v-2.93h-3.35v2.93h-1.01Z"/>
    <path class="st0" d="M35.5,7.95c-.47,0-.88-.11-1.24-.32-.35-.22-.63-.52-.82-.91-.19-.39-.29-.84-.29-1.36s.1-.98.29-1.37c.19-.39.47-.69.82-.91.35-.22.76-.32,1.24-.32s.88.11,1.24.32c.35.22.62.52.82.91.19.39.29.85.29,1.37s-.1.97-.29,1.36c-.19.39-.47.69-.82.91-.35.22-.76.32-1.24.32ZM35.5,7.12c.31,0,.56-.08.76-.24.2-.16.35-.38.45-.65.1-.27.15-.56.15-.89s-.05-.62-.15-.89c-.1-.27-.25-.49-.45-.65-.2-.16-.45-.25-.76-.25s-.56.08-.77.25c-.2.16-.35.38-.45.65-.1.27-.15.57-.15.89s.05.62.15.89c.1.27.25.48.45.65.2.16.46.24.77.24Z"/>
    <path class="st0" d="M38.94,7.84V2.81h2.09c.57,0,1.02.12,1.35.36.33.24.5.57.5.98,0,.29-.09.53-.28.7-.19.17-.44.29-.75.35.23.03.43.09.62.2.19.11.34.25.45.43.11.18.17.4.17.65,0,.27-.07.5-.21.71-.14.2-.34.36-.6.48-.26.11-.58.17-.94.17h-2.41ZM39.86,4.91h1.18c.18,0,.34-.03.47-.08.13-.05.23-.13.3-.22.07-.1.11-.21.11-.35,0-.19-.08-.35-.24-.46-.16-.11-.38-.16-.66-.16h-1.17v1.27ZM39.86,7.02h1.48c.24,0,.43-.06.57-.17.14-.12.21-.27.21-.47,0-.23-.07-.42-.21-.55-.14-.13-.33-.2-.57-.2h-1.48v1.4Z"/>
    <path class="st0" d="M44.9,4.54h1.46c.62,0,1.09.15,1.42.46.33.31.5.7.5,1.18,0,.31-.07.6-.22.85-.15.25-.37.45-.65.59-.29.15-.63.22-1.05.22h-2.2V2.81h.96v4.19h1.24c.28,0,.51-.07.69-.22.18-.15.27-.34.27-.57,0-.24-.09-.44-.27-.59-.18-.15-.41-.23-.69-.23h-1.46v-.85ZM49,7.84V2.81h.98v5.04h-.98Z"/>
    <path class="st0" d="M53.47,7.95c-.5,0-.92-.11-1.28-.32-.36-.21-.63-.51-.83-.9-.19-.39-.29-.84-.29-1.37s.1-.97.29-1.36c.19-.39.46-.7.81-.92.35-.22.76-.33,1.22-.33.28,0,.56.05.83.14.27.09.51.24.72.44.21.2.38.46.5.78.12.32.18.71.18,1.17v.35h-4v-.73h3.04c0-.26-.05-.49-.16-.69-.1-.2-.25-.36-.44-.47-.19-.12-.41-.17-.66-.17-.28,0-.52.07-.72.2-.2.13-.36.31-.47.52-.11.22-.17.45-.17.7v.57c0,.34.06.62.18.86.12.24.29.42.5.54.21.12.46.19.75.19.19,0,.36-.03.51-.08.15-.05.29-.13.4-.24.11-.11.2-.24.26-.4l.93.17c-.07.27-.21.51-.4.72-.19.2-.43.36-.72.48-.29.11-.61.17-.98.17Z"/>
    <path class="st0" d="M26.28,12.93v-.87h5.2v.87h-2.09v5.84h-1.01v-5.84h-2.09Z"/>
    <path class="st0" d="M33.97,18.87c-.5,0-.92-.11-1.28-.32-.36-.21-.63-.51-.83-.9-.19-.39-.29-.84-.29-1.37s.1-.97.29-1.36c.19-.39.46-.7.81-.92s.76-.33,1.22-.33c.28,0,.56.05.83.14.27.09.51.24.72.44.21.2.38.46.5.78.12.32.18.71.18,1.17v.35h-4v-.73h3.04c0-.26-.05-.49-.16-.69-.1-.2-.25-.36-.44-.47-.19-.12-.41-.17-.66-.17-.28,0-.52.07-.72.2-.2.13-.36.31-.47.52-.11.22-.17.45-.17.7v.57c0,.34.06.62.18.86.12.24.29.42.5.54.21.12.46.19.75.19.19,0,.36-.03.51-.08.15-.05.29-.13.4-.24.11-.11.2-.24.26-.4l.93.17c-.07.27-.21.51-.4.72-.19.2-.43.36-.72.48-.29.11-.61.17-.98.17Z"/>
    <path class="st0" d="M37.88,13.73l1.11,1.96,1.12-1.96h1.07l-1.57,2.52,1.58,2.52h-1.07l-1.13-1.88-1.13,1.88h-1.08l1.57-2.52-1.55-2.52h1.08Z"/>
    <path class="st0" d="M43.16,13.73v5.04h-.96v-5.04h.96ZM45.61,15.83v.85h-2.73v-.85h2.73ZM46.3,13.73v5.04h-.96v-5.04h.96Z"/>
    <path class="st0" d="M49.72,18.87c-.47,0-.88-.11-1.24-.32-.35-.22-.62-.52-.82-.91-.19-.39-.29-.84-.29-1.36s.1-.98.29-1.37c.19-.39.47-.69.82-.91.35-.22.76-.32,1.24-.32s.88.11,1.24.32c.35.22.62.52.82.91.19.39.29.85.29,1.37s-.1.97-.29,1.36c-.19.39-.47.69-.82.91-.35.22-.76.32-1.24.32ZM49.73,18.05c.31,0,.56-.08.76-.24.2-.16.35-.38.45-.65.1-.27.15-.56.15-.89s-.05-.62-.15-.89c-.1-.27-.25-.49-.45-.65-.2-.16-.45-.25-.76-.25s-.56.08-.77.25c-.2.16-.35.38-.45.65-.1.27-.15.57-.15.89s.05.62.15.89c.1.27.25.48.45.65.2.16.46.24.77.24Z"/>
    <path class="st0" d="M52.77,18.77v-.85s.18,0,.18,0c.14,0,.26-.03.35-.09.1-.06.17-.16.23-.31.06-.14.11-.34.14-.6.03-.25.06-.58.07-.96l.09-2.23h3.51v5.04h-.96v-4.19h-1.65l-.08,1.71c-.02.42-.06.78-.13,1.09-.06.31-.16.57-.28.78-.12.21-.28.36-.47.46-.19.1-.43.15-.7.15h-.31Z"/>
    <path class="st0" d="M60.77,18.87c-.47,0-.88-.11-1.24-.32-.35-.22-.62-.52-.82-.91-.19-.39-.29-.84-.29-1.36s.1-.98.29-1.37c.19-.39.47-.69.82-.91.35-.22.76-.32,1.24-.32s.88.11,1.24.32c.35.22.62.52.82.91.19.39.29.85.29,1.37s-.1.97-.29,1.36c-.19.39-.47.69-.82.91-.35.22-.76.32-1.24.32ZM60.77,18.05c.31,0,.56-.08.76-.24.2-.16.35-.38.45-.65.1-.27.15-.56.15-.89s-.05-.62-.15-.89c-.1-.27-.25-.49-.45-.65-.2-.16-.45-.25-.76-.25s-.56.08-.77.25c-.2.16-.35.38-.45.65-.1.27-.15.57-.15.89s.05.62.15.89c.1.27.25.48.45.65.2.16.46.24.77.24Z"/>
    <path class="st0" d="M67.43,13.73v.85h-2.25v4.19h-.97v-5.04h3.22Z"/>
    <path class="st0" d="M69.42,17.39l2.22-3.66h1.06v5.04h-.96v-3.66l-2.21,3.66h-1.07v-5.04h.96v3.66Z"/>
    <path class="st0" d="M74.98,17.39l2.22-3.66h1.06v5.04h-.96v-3.66l-2.21,3.66h-1.07v-5.04h.96v3.66Z"/>
  </g>
  <g>
    <g>
      <g>
        <path class="st1" d="M14.23,1.74c-.16.38-.6.56-.98.41-.38-.16-.56-.6-.41-.98.16-.38.6-.56.98-.41.38.16.56.6.41.98Z"/>
        <path class="st1" d="M13.09,4.51c-.16.38-.6.56-.98.41-.38-.16-.56-.6-.41-.98.16-.38.6-.56.98-.41.38.16.56.6.41.98Z"/>
      </g>
      <g>
        <path class="st1" d="M18.83,7.15c-.38.16-.82-.02-.98-.41-.16-.38.02-.82.41-.98.38-.16.82.02.98.41.16.38-.02.82-.41.98Z"/>
        <path class="st1" d="M16.06,8.3c-.38.16-.82-.02-.98-.41-.16-.38.02-.82.41-.98.38-.16.82.02.98.41.16.38-.02.82-.41.98Z"/>
      </g>
    </g>
    <g>
      <path class="st1" d="M18.26,14.23c-.38-.16-.56-.6-.41-.98.16-.38.6-.56.98-.41.38.16.56.6.41.98-.16.38-.6.56-.98.41Z"/>
      <path class="st1" d="M15.49,13.09c-.38-.16-.56-.6-.41-.98.16-.38.6-.56.98-.41.38.16.56.6.41.98-.16.38-.6.56-.98.41Z"/>
    </g>
    <g>
      <path class="st1" d="M7.15,18.83c.16-.38-.02-.82-.41-.98-.38-.16-.82.02-.98.41-.16.38.02.82.41.98.38.16.82-.02.98-.41Z"/>
      <path class="st1" d="M8.3,16.07c.16-.38-.02-.82-.41-.98-.38-.16-.82.02-.98.41-.16.38.02.82.41.98.38.16.82-.02.98-.41Z"/>
    </g>
    <g>
      <path class="st1" d="M12.85,18.83c-.16-.38.02-.82.41-.98.38-.16.82.02.98.41.16.38-.02.82-.41.98-.38.16-.82-.02-.98-.41Z"/>
      <path class="st1" d="M11.7,16.06c-.16-.38.02-.82.41-.98.38-.16.82.02.98.41.16.38-.02.82-.41.98-.38.16-.82-.02-.98-.41Z"/>
    </g>
    <g>
      <path class="st1" d="M6.92,4.51c-.16-.38.02-.82.41-.98.38-.16.82.02.98.41.16.38-.02.82-.41.98-.38.16-.82-.02-.98-.41Z"/>
      <path class="st1" d="M5.77,1.74c-.16-.38.02-.82.41-.98.38-.16.82.02.98.41.16.38-.02.82-.41.98-.38.16-.82-.02-.98-.41Z"/>
      <path class="st1" d="M17.23,3.17c-.16-.38-.6-.56-.98-.41-.09.04-.17.09-.24.16,0,0,0,0,0,0h0s0,0,0,0L2.93,16.01s0,0,0,0c-.21.21-.28.53-.16.82.16.38.6.56.98.41.09-.04.17-.09.24-.16,0,0,0,0,0,0h0s0,0,0,0L17.07,3.99s0,0,0,0c.21-.21.28-.53.16-.82Z"/>
      <path class="st1" d="M19.94,9.71c-.12-.29-.4-.46-.69-.46h0s-18.5,0-18.5,0c0,0-.02,0-.03,0-.09,0-.17.02-.26.05-.38.16-.56.6-.41.98.12.29.4.46.69.46,0,0,0,0,0,0h18.5s.02,0,.03,0c.09,0,.17-.02.26-.05.38-.16.56-.6.41-.98Z"/>
      <path class="st1" d="M10.75,19.25V.76s0,0,0,0h0s0,0,0-.01c0-.09-.02-.19-.06-.28-.16-.38-.6-.56-.98-.41-.29.12-.46.4-.46.69,0,0,0,0,0,0v18.5s0,.02,0,.03c0,.09.02.17.05.26.16.38.6.56.98.41.29-.12.46-.4.46-.69h0Z"/>
      <path class="st1" d="M17.23,16.25c-.04-.09-.09-.17-.16-.24,0,0,0,0,0,0h0s0,0,0,0L3.99,2.93s0,0,0,0c-.21-.21-.53-.28-.82-.16-.38.16-.56.6-.41.98.04.09.09.17.16.24,0,0,0,0,0,0h0s0,0,0,0l13.08,13.08s0,0,0,0c.21.21.53.28.82.16.38-.16.56-.6.41-.98Z"/>
    </g>
    <g>
      <g>
        <path class="st1" d="M1.17,7.15c.38.16.82-.02.98-.41.16-.38-.02-.82-.41-.98-.38-.16-.82.02-.98.41-.16.38.02.82.41.98Z"/>
        <path class="st1" d="M3.93,8.3c.38.16.82-.02.98-.41.16-.38-.02-.82-.41-.98-.38-.16-.82.02-.98.41-.16.38.02.82.41.98Z"/>
      </g>
      <g>
        <path class="st1" d="M1.74,14.23c.38-.16.56-.6.41-.98-.16-.38-.6-.56-.98-.41-.38.16-.56.6-.41.98.16.38.6.56.98.41Z"/>
        <path class="st1" d="M4.51,13.09c.38-.16.56-.6.41-.98-.16-.38-.6-.56-.98-.41-.38.16-.56.6-.41.98.16.38.6.56.98.41Z"/>
      </g>
    </g>
  </g>
</svg>