<?xml version="1.0" encoding="UTF-8"?>
<svg id="Layer_1" xmlns="http://www.w3.org/2000/svg" version="1.1" viewBox="0 0 40 40">
  <!-- Generator: Adobe Illustrator 29.3.0, SVG Export Plug-In . SVG Version: 2.1.0 Build 146)  -->
  <defs>
    <style>
      .st0 {
        fill: #fff;
      }
    </style>
  </defs>
  <g>
    <path class="st0" d="M23.88,15.86v8.3s-.28.52-.33.6c-.34.46-.82.68-1.39.75-3.86-.22-8.04.29-11.87,0-.64-.05-1.24-.25-1.6-.81-.05-.08-.29-.59-.29-.63v-8.2h15.48ZM13.83,19.25c0-1.16-.94-2.1-2.1-2.1s-2.1.94-2.1,2.1.94,2.1,2.1,2.1,2.1-.94,2.1-2.1ZM22.65,19.25c0-1.16-.94-2.09-2.09-2.09s-2.09.94-2.09,2.09.94,2.09,2.09,2.09,2.09-.94,2.09-2.09ZM18.24,22.09c0-1.16-.94-2.09-2.09-2.09s-2.09.94-2.09,2.09.94,2.09,2.09,2.09,2.09-.94,2.09-2.09Z"/>
    <path d="M13.83,19.25c0,1.16-.94,2.1-2.1,2.1s-2.1-.94-2.1-2.1.94-2.1,2.1-2.1,2.1.94,2.1,2.1ZM13.09,19.24c0-.74-.6-1.34-1.34-1.34s-1.34.6-1.34,1.34.6,1.34,1.34,1.34,1.34-.6,1.34-1.34Z"/>
    <path d="M22.65,19.25c0,1.16-.94,2.09-2.09,2.09s-2.09-.94-2.09-2.09.94-2.09,2.09-2.09,2.09.94,2.09,2.09ZM21.9,19.24c0-.74-.6-1.34-1.34-1.34s-1.34.6-1.34,1.34.6,1.34,1.34,1.34,1.34-.6,1.34-1.34Z"/>
    <path d="M18.24,22.09c0,1.16-.94,2.09-2.09,2.09s-2.09-.94-2.09-2.09.94-2.09,2.09-2.09,2.09.94,2.09,2.09ZM17.49,22.09c0-.74-.6-1.35-1.35-1.35s-1.35.6-1.35,1.35.6,1.35,1.35,1.35,1.35-.6,1.35-1.35Z"/>
    <circle class="st0" cx="11.74" cy="19.24" r="1.34"/>
    <circle class="st0" cx="20.56" cy="19.24" r="1.34"/>
    <circle class="st0" cx="16.15" cy="22.09" r="1.35"/>
    <g>
      <path d="M9.84,26.24c-.91-.13-2-1.09-2.16-2.02l-.02-8.37c-1.18.07-2.54-.12-2.85-1.46l-.03-12.77c.02-.78.77-1.53,1.53-1.62h19.47c.92-.01,1.53.69,1.7,1.54v12.78c-.28,1.41-1.57,1.56-2.78,1.59l-.1,8.31c-.14.86-1.28,2.02-2.16,2.02h-2.27c.15,1.22-.26,1.8-1.49,1.91.23,1.83-.6,4.84.79,6.25,1.22,1.25,2.93.73,4.5.83l.05-.47c.3-.22,1.33.02,1.73-.1.2-.06.53-.55.78-.71.88-.55,2.51-.23,3.5-.2.52.02,1.16-.4,1.27.54l1.23.02.21.37,2.26.04c.32.16.26,1.81-.05,1.81h-2.27v.74h2.36l.14.14v1.39c0,.43-2.08.14-2.44.23-.11.03-.1.29-.31.36-.23.07-1.08-.04-1.14.02s.1.47-.33.55c-1.18-.09-2.55.13-3.71,0-.74-.08-1-.56-1.52-.98l-1.67-.09-.24-.52h-6.57c-2.28-.44-3.52-2.12-3.67-4.39-.12-1.92.1-3.96,0-5.89-1.21.1-1.62-.78-1.48-1.85-.71-.07-1.59.1-2.27,0ZM6.24.77c-.46.16-.67.58-.72,1.04-.37,3.83.29,8.26,0,12.15,0,.71.58,1.13,1.25,1.16h18.64c.64-.02,1.33-.35,1.35-1.07-.28-3.94.36-8.37,0-12.25-.06-.59-.34-1.04-.97-1.07l-19.55.02ZM23.88,15.86h-15.48v8.2s.24.55.29.63c.37.56.96.76,1.6.81,3.83.29,8.01-.22,11.87,0,.56-.06,1.05-.28,1.39-.75.05-.07.33-.56.33-.6v-8.3ZM19.43,26.24h-6.58c.04.56-.06,1.05.6,1.12,1.76.18,3.85-.12,5.64-.03l.23-.09.11-1ZM15.72,28c-.3.14-1.26-.2-1.38.15.06,1.85-.13,3.81-.02,5.65.08,1.4.45,2.54,1.68,3.33.15.09.96.52,1.06.52h6.91v-.46h-4.5c-1.75,0-3.75-2.64-3.75-4.31v-4.87ZM17.95,28.09l-1.39-.09c-.02,1.36-.17,2.77-.1,4.13.09,1.6.46,2.96,1.92,3.82.26.16,1,.48,1.28.48h4.31l-.15-.45c-1.69-.09-3.22.34-4.62-.85-.52-.44-1.25-1.58-1.25-2.27v-4.77ZM30.56,39.22v-4.68l-.14-.14h-3.15c-.43,0-.89,1.02-1.21,1.02h-1.34v2.78c.4.04.92-.08,1.3.04.36.11.84.98,1.15.98h3.38ZM31.3,34.95v3.71h.65v-3.71h-.65ZM34.45,35.79v-.46s-.12.09-.14.09h-1.62v.37h1.76ZM32.69,38.29h1.72c.31-.29.04-.35-.27-.38-.48-.04-.97.03-1.44.1v.28Z"/>
      <path class="st0" d="M30.56,39.22h-3.38c-.32,0-.8-.87-1.15-.98-.38-.12-.9,0-1.3-.04v-2.78h1.34c.31,0,.78-1.02,1.21-1.02h3.15l.14.14v4.68Z"/>
      <path class="st0" d="M15.72,28v4.87c0,1.68,2.01,4.31,3.75,4.31h4.5v.46h-6.91c-.1,0-.91-.42-1.06-.52-1.23-.79-1.6-1.93-1.68-3.33-.11-1.84.08-3.79.02-5.65.11-.35,1.08-.01,1.38-.15Z"/>
      <path class="st0" d="M17.95,28.09v4.77c0,.69.73,1.83,1.25,2.27,1.4,1.19,2.93.76,4.62.85l.15.45h-4.31c-.27,0-1.02-.33-1.28-.48-1.46-.86-1.83-2.22-1.92-3.82-.08-1.36.07-2.77.1-4.13l1.39.09Z"/>
      <path class="st0" d="M19.43,26.24l-.11,1-.23.09c-1.8-.1-3.88.2-5.64.03-.66-.07-.56-.55-.6-1.12h6.58Z"/>
      <rect class="st0" x="31.3" y="34.95" width=".65" height="3.71"/>
      <path class="st0" d="M34.45,35.79h-1.76v-.37h1.62s.11-.14.14-.09v.46Z"/>
      <path class="st0" d="M32.69,38.29v-.28c.47-.06.96-.14,1.44-.1.31.03.59.08.27.38h-1.72Z"/>
    </g>
  </g>
  <g>
    <path class="st0" d="M6.24.77l19.55-.02c.64.02.92.48.97,1.07.36,3.88-.28,8.31,0,12.25-.01.72-.71,1.04-1.35,1.07H6.77c-.67-.03-1.26-.45-1.25-1.16.29-3.89-.37-8.32,0-12.15.04-.46.26-.88.72-1.04ZM7.26,1.51c-.52.1-.84.42-.91.95v10.94c.04.46.5.9.97.88h17.62c.56-.01.92-.43.97-.97.31-3.41-.25-7.3,0-10.76,0-.5-.31-.84-.76-1l-17.9-.04Z"/>
    <path d="M7.26,1.51l17.9.04c.46.15.76.5.76,1-.25,3.46.31,7.35,0,10.76-.05.54-.41.96-.97.97H7.33c-.47.02-.93-.42-.97-.88V2.46c.06-.53.38-.85.9-.95ZM25.18,2.22H7.1v11.32h18.08V2.22Z"/>
    <path class="st0" d="M25.18,2.22v11.32H7.1V2.22h18.08ZM13.75,3.36c-.88.14-1.71,1.02-1.81,1.9-.04.38.13.69-.03.98l-3.41,4.19c-.59,1.45,1.07,2.64,2.3,1.75l3.34-4.35c1.44.04,2.5-1.14,2.29-2.57s-1.02-.63-1.46.17c-.2.13-.65-.35-.83-.48-.05-.21.89-1.01.73-1.37-.1-.32-.86-.27-1.13-.23ZM22.37,4.95c-.47-.39-.88.25-1.12.23-.43-.03-.37-.7-.62-.96-.12-.07-1.07-.08-1.25-.04-.48.09-.28.7-.57.92-.38.28-.65-.38-1.08-.26-.05.01-.81.67-.85.73-.38.53.24.73.21,1.14-.03.45-.75.26-.96.62-.07.16-.08,1.06-.05,1.25.08.43.75.2.95.63.15.32-.35.55-.29.93.02.16.63.82.77.91.51.3.79-.29,1.19-.18.33.09.26.77.5.92.18.11.96.13,1.19.08.54-.1.43-.86.6-.98.34-.24.81.35,1.24.22.1-.03.69-.62.76-.73.38-.59-.46-.83-.11-1.36l.86-.3c.07-.12.08-1.08.05-1.25-.08-.42-.84-.33-.98-.6-.19-.36.36-.68.28-1.03-.01-.06-.66-.83-.72-.89Z"/>
    <g>
      <path d="M13.75,3.36c.27-.04,1.03-.09,1.13.23.16.36-.78,1.16-.73,1.37.18.12.64.6.83.48.44-.79,1.25-1.64,1.46-.17s-.85,2.61-2.29,2.57l-3.34,4.35c-1.23.9-2.89-.29-2.3-1.75l3.41-4.19c.16-.29,0-.6.03-.98.1-.88.92-1.76,1.81-1.9ZM10.53,11.31c-.53.58-1.57.22-1.18-.58s1.38-.16,1.18.58c1.13-1.41,2.16-2.96,3.43-4.22.96.17,1.85-.54,1.86-1.52-.34.16-.46.74-.88.73-.21,0-1.19-.69-1.35-.87-.5-.56,0-.84.28-1.34-.5.03-1.13.69-1.2,1.16-.06.41.16.85.04,1.15l-3.5,4.29c-.41.83.65,1.48,1.23.86.07-.08.06-.2.09-.23Z"/>
      <path class="st0" d="M10.53,11.31s-.02.16-.09.23c-.59.62-1.65-.03-1.23-.86l3.5-4.29c.12-.3-.1-.74-.04-1.15.07-.48.69-1.14,1.2-1.16-.29.5-.78.79-.28,1.34.16.18,1.13.87,1.35.87.42,0,.54-.58.88-.73-.01.99-.9,1.7-1.86,1.52-1.27,1.26-2.29,2.82-3.43,4.22.2-.74-.81-1.34-1.18-.58s.65,1.15,1.18.58Z"/>
    </g>
    <g>
      <path d="M22.37,4.95c.07.05.71.83.72.89.08.35-.47.68-.28,1.03.14.27.9.18.98.6.03.18.03,1.13-.05,1.25l-.86.3c-.34.53.49.77.11,1.36-.07.11-.66.7-.76.73-.43.13-.9-.46-1.24-.22-.17.12-.06.88-.6.98-.23.04-1.01.03-1.19-.08-.24-.15-.17-.83-.5-.92-.4-.11-.68.48-1.19.18-.14-.08-.74-.75-.77-.91-.06-.37.45-.6.29-.93-.2-.43-.87-.2-.95-.63-.04-.2-.03-1.09.05-1.25.2-.36.93-.18.96-.62.03-.4-.6-.61-.21-1.14.04-.06.8-.72.85-.73.43-.12.71.54,1.08.26.28-.21.09-.83.57-.92.18-.03,1.13-.03,1.25.04.25.25.19.93.62.96.24.02.65-.62,1.12-.23ZM20.16,4.93c-.71-.19-.43.42-.73.68-.03.03-.78.37-.82.38-.3.06-.6-.51-.89-.24-.35.31.17.51.14.88,0,.05-.26.77-.29.82-.19.31-.79.25-.82.4-.13.58.63.31.82.66.05.08.3.83.3.91,0,.33-.4.44-.2.74.03.05.2.21.24.21.51-.62,1.74-.1,1.76.67l.28.1c.39.06.25-.51.55-.75.11-.09.79-.37.91-.35.23.04.44.42.67.27.46-.3.04-.47-.03-.73-.12-.44.2-.71.28-1.11l.82-.26c.15-.65-.43-.37-.75-.64-.06-.05-.4-.79-.42-.87-.06-.35.46-.63.24-.89-.32-.36-.55.15-.89.15-.5,0-1.2-.45-1.17-1.02Z"/>
      <path class="st0" d="M20.16,4.93c-.03.57.67,1.02,1.17,1.02.34,0,.57-.51.89-.15.22.27-.3.54-.24.89.01.08.36.82.42.87.32.27.9,0,.75.64l-.82.26c-.08.4-.4.68-.28,1.11.07.26.49.43.03.73-.23.15-.44-.24-.67-.27-.12-.02-.8.27-.91.35-.3.24-.16.81-.55.75l-.28-.1c-.02-.77-1.25-1.29-1.76-.67-.03,0-.21-.17-.24-.21-.19-.3.2-.41.2-.74,0-.08-.25-.83-.3-.91-.2-.34-.96-.07-.82-.66.03-.15.64-.08.82-.4.03-.05.29-.78.29-.82.03-.37-.5-.57-.14-.88.3-.27.59.3.89.24.05,0,.79-.35.82-.38.3-.27.03-.87.73-.68ZM21.64,8.01c0-.96-.78-1.73-1.73-1.73s-1.73.78-1.73,1.73.78,1.73,1.73,1.73,1.73-.78,1.73-1.73Z"/>
      <path d="M21.64,8.01c0,.96-.78,1.73-1.73,1.73s-1.73-.78-1.73-1.73.78-1.73,1.73-1.73,1.73.78,1.73,1.73ZM20.91,8c0-.56-.45-1.01-1.01-1.01s-1.01.45-1.01,1.01.45,1.01,1.01,1.01,1.01-.45,1.01-1.01Z"/>
      <circle class="st0" cx="19.9" cy="8" r="1.01"/>
    </g>
  </g>
</svg>